# xmcd
#
# Track frame offsets:
#	150
#	13473
#	30254
#	44795
#	61149
#	78086
#	93549
#	111901
#	134144
#	151014
#	174588
#
# Disc length: 2588 seconds
#
# Revision: 1
# Processed by: cddbd v1.5.2PL0 Copyright (c) Steve Scherf et al.
# Submitted via: audiograbber 1.83.01
#
DISCID=8d0a1a0b
DTITLE=Chris Bergson Band - Bitter Midnight
DYEAR=1900
DGENRE=
TTITLE0=Pedal Tones
TTITLE1=5:20
TTITLE2=Just Before The Storm
TTITLE3=Knuckles and Bones
TTITLE4=Explode Or Contain
TTITLE5=Lullaby
TTITLE6=61st  and 1st
TTITLE7=Blues For Dave
TTITLE8=Small Trouble
TTITLE9=Another Day
TTITLE10=Bitter Midnight
EXTD=
EXTT0=
EXTT1=
EXTT2=
EXTT3=
EXTT4=
EXTT5=
EXTT6=
EXTT7=
EXTT8=
EXTT9=
EXTT10=
PLAYORDER=
